<?xml version="1.0" encoding="iso-8859-1"?>
<!-- Generator: Adobe Illustrator 19.0.0, SVG Export Plug-In . SVG Version: 6.00 Build 0)  -->
<svg version="1.1" id="Layer_1" xmlns="http://www.w3.org/2000/svg" xmlns:xlink="http://www.w3.org/1999/xlink" x="0px" y="0px"
	 viewBox="0 0 512 512" style="enable-background:new 0 0 512 512;" xml:space="preserve">
<g>
	<path style="fill:#FF7058;" d="M469.333,347.2c-2.133,0-4.267-1.067-5.333-2.133c-3.2-3.2-3.2-8.533,0-11.733
		c20.267-20.267,32-48,32-76.8s-11.733-56.533-32-76.8c-3.2-3.2-3.2-8.533,0-11.733c3.2-3.2,8.533-3.2,11.733,0
		C499.2,191.467,512,223.467,512,256.533s-12.8,65.067-36.267,88.533C473.6,346.133,471.467,347.2,469.333,347.2z"/>
	<path style="fill:#FF7058;" d="M438.4,316.267c-2.133,0-4.267-1.067-5.333-2.133c-3.2-3.2-3.2-8.533,0-11.733
		c11.733-11.733,19.2-27.733,19.2-45.867c0-17.067-6.4-33.067-19.2-45.867c-3.2-3.2-3.2-8.533,0-11.733c3.2-3.2,8.533-3.2,11.733,0
		c14.933,14.933,23.467,35.2,23.467,57.6c0,22.4-8.533,41.6-23.467,57.6C442.667,315.2,440.533,316.267,438.4,316.267z"/>
	<path style="fill:#FF7058;" d="M42.667,165.867c2.133,0,4.267,1.067,5.333,2.133c3.2,3.2,3.2,8.533,0,11.733
		c-20.267,20.267-32,48-32,76.8s11.733,56.533,32,76.8c3.2,3.2,3.2,8.533,0,11.733c-3.2,3.2-8.533,3.2-11.733,0
		C12.8,321.6,0,289.6,0,256.533S12.8,191.467,36.267,168C38.4,166.933,40.533,165.867,42.667,165.867z"/>
	<path style="fill:#FF7058;" d="M73.6,196.8c2.133,0,4.267,1.067,5.333,2.133c3.2,3.2,3.2,8.533,0,11.733
		c-11.733,11.733-19.2,27.733-19.2,45.867s6.4,33.067,19.2,45.867c3.2,3.2,3.2,8.533,0,11.733c-3.2,3.2-8.533,3.2-11.733,0
		c-14.933-16-22.4-36.267-22.4-57.6s8.533-41.6,23.467-57.6C69.333,197.867,71.467,196.8,73.6,196.8z"/>
</g>
<path style="fill:#F8B64C;" d="M256,137.067c-27.733,0-50.133-22.4-50.133-50.133S228.267,36.8,256,36.8s50.133,22.4,50.133,50.133
	S283.733,137.067,256,137.067z M256,68.8c-10.667,0-19.2,8.533-19.2,19.2s8.533,19.2,19.2,19.2c10.667,0,19.2-8.533,19.2-19.2
	S266.667,68.8,256,68.8z"/>
<path style="fill:#FF7058;" d="M345.6,414.4c-5.333,12.8-12.8,24.533-22.4,34.133C306.133,465.6,282.667,475.2,256,475.2
	s-49.067-10.667-67.2-26.667c-9.6-9.6-18.133-21.333-22.4-34.133H345.6z"/>
<path style="opacity:0.1;fill:#231F20;enable-background:new    ;" d="M345.6,414.4c-5.333,12.8-12.8,24.533-22.4,34.133H188.8
	c-9.6-9.6-18.133-21.333-22.4-34.133H345.6z"/>
<path style="fill:#FFD15C;" d="M409.6,384.533H102.4V241.6C102.4,156.267,170.667,88,256,88l0,0c85.333,0,153.6,68.267,153.6,153.6
	V384.533z"/>
<path style="fill:#F8B64C;" d="M393.6,369.6H118.4c-25.6,0-45.867,20.267-45.867,45.867v9.6c0,5.333,4.267,9.6,9.6,9.6h347.733
	c5.333,0,9.6-4.267,9.6-9.6v-9.6C439.467,390.933,418.133,369.6,393.6,369.6z"/>
<g>
</g>
<g>
</g>
<g>
</g>
<g>
</g>
<g>
</g>
<g>
</g>
<g>
</g>
<g>
</g>
<g>
</g>
<g>
</g>
<g>
</g>
<g>
</g>
<g>
</g>
<g>
</g>
<g>
</g>
</svg>
